<svg xmlns="http://www.w3.org/2000/svg" width="48" height="48" viewBox="0 0 24 24" fill="none" stroke="currentColor" stroke-width="2" stroke-linecap="round" stroke-linejoin="round" class="lucide lucide-candy-off"><path d="M11.84 22a2 2 0 0 1-1.79-1.15l-1-2A2 2 0 0 0 7.26 18H4a2 2 0 0 1-2-2V4a2 2 0 0 1 2-2h11.26a2 2 0 0 1 1.79 1.15l1 2A2 2 0 0 0 19.74 6H22a2 2 0 0 1 2 2v3M8.5 8.5c.8-.8 1.52-1.24 2.5-1.5m3.5 3.5c.26-.98.7-1.7 1.5-2.5m-7.5 9L2 2"/><path d="m16 16-1-1"/><path d="M12 12l-1-1"/><path d="M22 12v2a2 2 0 0 1-2 2h-4.74a2 2 0 0 0-1.79 1.15l-1 2A2 2 0 0 1 10.66 22H10"/></svg>
