<svg xmlns="http://www.w3.org/2000/svg" width="48" height="48" viewBox="0 0 24 24" fill="none" stroke="currentColor" stroke-width="2" stroke-linecap="round" stroke-linejoin="round" class="lucide lucide-beef"><path d="M20.93 16.38A4.24 4.24 0 0 0 16.3 14.9c-1.52-.63-3.5-1.08-5.3-1.08s-3.78.45-5.3 1.08a4.24 4.24 0 0 0-4.63 1.48C.37 17.08 0 18.26 0 19.53c0 1.93 1.57 3.5 3.5 3.5h17c1.93 0 3.5-1.57 3.5-3.5 0-1.27-.37-2.45-1.07-3.15Z"/><path d="M6.26 14.06C8.17 12.43 10.53 12 12 12s3.83.43 5.74 2.06"/><path d="M12 12v2.5"/><path d="M10.5 6c-1 .5-2.5 2.5-2.5 4.5s1.5 4 2.5 4.5"/><path d="M13.5 6c1 .5 2.5 2.5 2.5 4.5S14.5 14 13.5 14.5"/></svg>
